<?xml version="1.0" standalone="no"?><!DOCTYPE svg PUBLIC "-//W3C//DTD SVG 1.1//EN" "http://www.w3.org/Graphics/SVG/1.1/DTD/svg11.dtd"><svg class="icon" width="256px" height="256.00px" viewBox="0 0 1024 1024" version="1.1" xmlns="http://www.w3.org/2000/svg"><path fill="#bfbfbf" d="M524.8 64c4.693 0 8.533 3.84 8.533 8.533v418.134h418.134c4.693 0 8.533 3.84 8.533 8.533v46.933a8.533 8.533 0 0 1-8.533 8.534H533.333V972.8a8.533 8.533 0 0 1-8.533 8.533h-46.933a8.533 8.533 0 0 1-8.534-8.533V554.667H51.2a8.533 8.533 0 0 1-8.533-8.534V499.2c0-4.693 3.84-8.533 8.533-8.533h418.133V72.533c0-4.693 3.84-8.533 8.534-8.533H524.8z"  /></svg>