<?xml version="1.0" standalone="no"?><!DOCTYPE svg PUBLIC "-//W3C//DTD SVG 1.1//EN" "http://www.w3.org/Graphics/SVG/1.1/DTD/svg11.dtd"><svg t="1735796854277" class="icon custom-cursor-default-hover" viewBox="0 0 1160 1024" version="1.1" xmlns="http://www.w3.org/2000/svg" p-id="4242" xmlns:xlink="http://www.w3.org/1999/xlink" width="290" height="256"><path d="M375.694222 535.836444H258.360889c-23.552 0-42.695111 19.228444-42.695111 42.780445v117.361778c0 23.608889 19.171556 42.808889 42.695111 42.808889h117.333333c23.608889 0 42.808889-19.171556 42.808889-42.808889v-117.361778a42.808889 42.808889 0 0 0-42.808889-42.780445M375.694222 285.184H258.360889c-23.552 0-42.695111 19.171556-42.695111 42.780444v117.361778c0 23.552 19.171556 42.780444 42.695111 42.780445h117.333333c23.608889 0 42.808889-19.2 42.808889-42.780445V327.964444a42.837333 42.837333 0 0 0-42.808889-42.780444M525.027556 488.135111h117.333333c23.637333 0 42.894222-19.2 42.894222-42.780444v-117.361778c0-23.580444-19.228444-42.780444-42.894222-42.780445h-117.333333c-23.580444 0-42.780444 19.171556-42.780445 42.780445v117.361778a42.837333 42.837333 0 0 0 42.780445 42.780444" fill="#bfbfbf" p-id="4243"></path><path d="M902.200889 285.184h-117.304889c-23.637333 0-42.837333 19.171556-42.837333 42.780444v207.843556h-217.059556c-23.580444 0-42.808889 19.228444-42.808889 42.808889v117.361778c0 23.608889 19.228444 42.808889 42.808889 42.808889l381.923556-0.426667a42.666667 42.666667 0 0 0 38.030222-42.382222V327.992889a42.808889 42.808889 0 0 0-42.752-42.808889" fill="#bfbfbf" p-id="4244" class="custom-cursor-on-hover"></path><path d="M976.668444 1024H183.921778A184.120889 184.120889 0 0 1 0 840.078222V183.921778A184.120889 184.120889 0 0 1 183.921778 0h792.746666c101.404444 0 183.921778 82.488889 183.921778 183.921778v656.156444A184.120889 184.120889 0 0 1 976.668444 1024M183.921778 73.557333a110.478222 110.478222 0 0 0-110.364445 110.364445v656.156444a110.478222 110.478222 0 0 0 110.364445 110.336h792.746666c60.871111 0 110.364444-49.493333 110.364445-110.336V183.921778c0-60.871111-49.493333-110.364444-110.364445-110.364445H183.921778z" fill="#bfbfbf" p-id="4245" class="custom-cursor-on-hover"></path></svg>