<?xml version="1.0" standalone="no"?><!DOCTYPE svg PUBLIC "-//W3C//DTD SVG 1.1//EN" "http://www.w3.org/Graphics/SVG/1.1/DTD/svg11.dtd"><svg class="icon" width="256px" height="256.00px" viewBox="0 0 1024 1024" version="1.1" xmlns="http://www.w3.org/2000/svg"><path fill="#bfbfbf" d="M864 512a352 352 0 0 0-600.96-248.96c-15.744 15.872-40.704 42.88-63.232 67.648H320a32 32 0 1 1 0 64H128a31.872 31.872 0 0 1-32-32v-192a32 32 0 1 1 64 0v108.672c20.544-22.528 42.688-46.4 57.856-61.504a416 416 0 1 1 0 588.288 32 32 0 1 1 45.248-45.248A352 352 0 0 0 864 512z" /></svg>