<?xml version="1.0" standalone="no"?><!DOCTYPE svg PUBLIC "-//W3C//DTD SVG 1.1//EN" "http://www.w3.org/Graphics/SVG/1.1/DTD/svg11.dtd"><svg t="1735798376405" class="icon" viewBox="0 0 1024 1024" version="1.1" xmlns="http://www.w3.org/2000/svg" p-id="5764" xmlns:xlink="http://www.w3.org/1999/xlink" width="256" height="256"><path d="M511.691067 313.154933c-115.13049 0-208.642032 92.552122-208.642033 206.403384 0 113.851262 93.575504 206.403384 208.578071 206.403384 11.193242 0 23.026098-1.151305 37.353448-3.645799a38.888521 38.888521 0 0 0 31.596923-45.156737 39.016444 39.016444 0 0 0-45.604466-31.213155 133.743253 133.743253 0 0 1-23.217982 2.366571 129.649724 129.649724 0 0 1-130.225377-128.754264c0-70.997135 58.332782-128.818226 130.033493-128.818226s130.033492 57.821091 130.033492 128.818226c0 6.907829-0.767537 14.199427-2.430533 22.898175a38.888521 38.888521 0 0 0 38.760599 45.860312c19.060492 0 35.242722-13.43189 38.568714-31.852769 2.494494-13.43189 3.645799-25.200785 3.645799-36.905718 0.063961-55.00679-21.618948-106.81551-61.083121-145.831954A208.258264 208.258264 0 0 0 511.691067 313.090971z m502.480627 97.349225a35.946297 35.946297 0 0 0-26.480013-28.910545 178.644144 178.644144 0 0 1-115.258413-89.67386 196.873138 196.873138 0 0 1-16.054307-149.925482 37.737216 37.737216 0 0 0-10.553628-38.632676 504.335507 504.335507 0 0 0-166.299597-101.250869 33.963495 33.963495 0 0 0-36.969679 9.72213A173.015542 173.015542 0 0 1 511.691067 72.020518c-50.081763 0-96.581689-21.491025-130.992914-60.443508a34.21934 34.21934 0 0 0-37.097602-9.658169 504.207585 504.207585 0 0 0-166.235635 101.442754 38.120984 38.120984 0 0 0-10.425706 38.37683 196.48937 196.48937 0 0 1-15.990345 150.053406A178.324337 178.324337 0 0 1 35.754413 381.46569a36.202143 36.202143 0 0 0-26.480012 29.038468A571.94269 571.94269 0 0 0 0 511.691067c0 33.068035 3.134108 67.159452 9.210439 101.122947 2.558455 14.32735 12.984161 25.648515 26.480013 28.974506 49.250265 11.896817 90.18555 43.749586 115.258413 89.609898 25.072862 45.860312 30.701464 99.140144 15.990345 150.053405a38.504753 38.504753 0 0 0 10.489667 38.504753 505.039083 505.039083 0 0 0 166.299597 101.314831c13.43189 4.861065 27.823202 0.703575 36.905718-9.594207 34.347263-38.952482 80.91115-60.379546 130.928952-60.379546 50.081763 0 96.581689 21.427063 130.992913 60.315585a34.027456 34.027456 0 0 0 37.097602 9.786091 505.103044 505.103044 0 0 0 166.235635-101.378792 38.37683 38.37683 0 0 0 10.489667-38.504753 196.04164 196.04164 0 0 1 16.054307-149.989444 178.196414 178.196414 0 0 1 115.258413-89.673859 36.202143 36.202143 0 0 0 26.480013-28.910546A572.646265 572.646265 0 0 0 1023.382133 511.755028c0-33.131997-3.134108-67.159452-9.210439-101.25087z m-246.379249 447.281954a408.457394 408.457394 0 0 1-100.35541 61.147082A227.318756 227.318756 0 0 0 511.691067 856.570845a228.342138 228.342138 0 0 0-155.873892 62.362349 408.649278 408.649278 0 0 1-100.35541-61.147082 258.148143 258.148143 0 0 0-26.671897-173.655156 237.808423 237.808423 0 0 0-129.329917-111.292807 453.742053 453.742053 0 0 1 0-122.358126 237.808423 237.808423 0 0 0 129.329917-111.292807c28.782622-52.640218 38.184946-113.979185 26.671897-173.591195a408.777201 408.777201 0 0 1 100.35541-61.147082 227.702525 227.702525 0 0 0 155.80993 62.42631c57.757129 0 112.82788-22.066677 155.873891-62.362349a408.713239 408.713239 0 0 1 100.355411 61.147083 259.235487 259.235487 0 0 0 26.607935 173.655155 237.808423 237.808423 0 0 0 129.329917 111.292807 455.277126 455.277126 0 0 1 0.063962 122.294165 237.808423 237.808423 0 0 0-129.329917 111.292807 259.939062 259.939062 0 0 0-26.671897 173.591195z" fill="#bfbfbf" p-id="5765"></path></svg>