<?xml version="1.0" standalone="no"?><!DOCTYPE svg PUBLIC "-//W3C//DTD SVG 1.1//EN" "http://www.w3.org/Graphics/SVG/1.1/DTD/svg11.dtd"><svg t="1735888843583" class="icon" viewBox="0 0 1024 1024" version="1.1" xmlns="http://www.w3.org/2000/svg" p-id="4256" xmlns:xlink="http://www.w3.org/1999/xlink" width="256" height="256"><path d="M928 896v-64a32 32 0 0 0 32-32V96a32 32 0 0 0-32-32H224a32 32 0 0 0-32 32H128a96 96 0 0 1 96-96h704a96 96 0 0 1 96 96v704a96 96 0 0 1-96 96zM896 224v704a96 96 0 0 1-96 96H96a96 96 0 0 1-96-96V224a96 96 0 0 1 96-96h704a96 96 0 0 1 96 96zM64 928a32 32 0 0 0 32 32h704a32 32 0 0 0 32-32V448H64v480zM64 224v160h768V224a32 32 0 0 0-32-32H96a32 32 0 0 0-32 32z m608 32h64v64h-64V256z m-96 64H160a32 32 0 0 1 0-64h416a32 32 0 0 1 0 64z" fill="#bfbfbf" p-id="4257"></path></svg>